{"accessors" : [{"bufferView" : 0, "byteOffset" : 0, "componentType" : 5123, "count" : 618, "type" : "SCALAR", "max" : [511], "min" : [0]}, {"bufferView" : 1, "byteOffset" : 0, "componentType" : 5126, "count" : 512, "type" : "VEC3", "max" : [0.05108530446887016, 1.744587779045105, 0.10891028493642807], "min" : [0.012190375477075577, 1.7057522535324097, 0.0895795077085495], "name" : "POSITION"}, {"bufferView" : 1, "byteOffset" : 12, "componentType" : 5126, "count" : 512, "type" : "VEC3", "max" : [0.9405931234359741, 0.9512237906455994, 1.0000042915344238], "min" : [-0.9471347332000732, -0.9485123753547668, -1.0000044107437134], "name" : "NORMAL"}, {"bufferView" : 1, "byteOffset" : 24, "componentType" : 5126, "count" : 512, "type" : "VEC2", "max" : [0.9646214246749878, 0.9818061590194702], "min" : [0.019903719425201416, 0.020990610122680664], "name" : "TEXCOORD_0"}, {"bufferView" : 0, "byteOffset" : 1236, "componentType" : 5123, "count" : 618, "type" : "SCALAR", "max" : [514], "min" : [0]}, {"bufferView" : 2, "byteOffset" : 0, "componentType" : 5126, "count" : 515, "type" : "VEC3", "max" : [-0.012463144026696682, 1.7446273565292358, 0.10891034454107285], "min" : [-0.05120345577597618, 1.705712080001831, 0.08957956731319427], "name" : "POSITION"}, {"bufferView" : 2, "byteOffset" : 12, "componentType" : 5126, "count" : 515, "type" : "VEC3", "max" : [0.9310587048530579, 0.9478596448898315, 1.0000042915344238], "min" : [-0.9491675496101379, -0.9364673495292664, -1.0000044107437134], "name" : "NORMAL"}, {"bufferView" : 2, "byteOffset" : 24, "componentType" : 5126, "count" : 515, "type" : "VEC2", "max" : [0.9585750699043274, 0.966354489326477], "min" : [0.006885886192321777, 0.022762417793273926], "name" : "TEXCOORD_0"}, {"bufferView" : 0, "byteOffset" : 2472, "componentType" : 5123, "count" : 12282, "type" : "SCALAR", "max" : [9713], "min" : [0]}, {"bufferView" : 3, "byteOffset" : 0, "componentType" : 5126, "count" : 9714, "type" : "VEC3", "max" : [0.09579432010650635, 1.8330841064453125, 0.14614564180374146], "min" : [-0.09610731154680252, 1.5206059217453003, -0.0865776538848877], "name" : "POSITION"}, {"bufferView" : 3, "byteOffset" : 12, "componentType" : 5126, "count" : 9714, "type" : "VEC3", "max" : [0.9992212057113647, 0.9998701810836792, 0.9999849200248718], "min" : [-0.9992178082466125, -0.9999943971633911, -0.9999960660934448], "name" : "NORMAL"}, {"bufferView" : 3, "byteOffset" : 24, "componentType" : 5126, "count" : 9714, "type" : "VEC2", "max" : [0.9943000078201294, 0.9807000160217285], "min" : [0.004999999888241291, 0.004350006580352783], "name" : "TEXCOORD_0"}, {"bufferView" : 0, "byteOffset" : 27036, "componentType" : 5123, "count" : 300, "type" : "SCALAR", "max" : [238], "min" : [0]}, {"bufferView" : 4, "byteOffset" : 0, "componentType" : 5126, "count" : 239, "type" : "VEC3", "max" : [0.028623221442103386, 1.6747602224349976, 0.12348801642656326], "min" : [-0.028623221442103386, 1.638077974319458, 0.0549253448843956], "name" : "POSITION"}, {"bufferView" : 4, "byteOffset" : 12, "componentType" : 5126, "count" : 239, "type" : "VEC3", "max" : [0.9971848130226135, 0.8770292401313782, 0.9974733591079712], "min" : [-0.9971846342086792, -0.9858387112617493, -0.7650244832038879], "name" : "NORMAL"}, {"bufferView" : 4, "byteOffset" : 24, "componentType" : 5126, "count" : 239, "type" : "VEC2", "max" : [0.9808249473571777, 0.983213484287262], "min" : [0.051069796085357666, 0.02829587459564209], "name" : "TEXCOORD_0"}, {"bufferView" : 0, "byteOffset" : 27636, "componentType" : 5123, "count" : 4716, "type" : "SCALAR", "max" : [3818], "min" : [0]}, {"bufferView" : 5, "byteOffset" : 0, "componentType" : 5126, "count" : 3819, "type" : "VEC3", "max" : [0.21904943883419037, 1.1305923461914062, 0.17123514413833618], "min" : [-0.21904587745666504, 0.28388291597366333, -0.13089248538017273], "name" : "POSITION"}, {"bufferView" : 5, "byteOffset" : 12, "componentType" : 5126, "count" : 3819, "type" : "VEC3", "max" : [0.999809980392456, 0.9864521026611328, 0.9987005591392517], "min" : [-0.9993944764137268, -0.9954454302787781, -0.9999886751174927], "name" : "NORMAL"}, {"bufferView" : 5, "byteOffset" : 24, "componentType" : 5126, "count" : 3819, "type" : "VEC4", "max" : [0.9999136328697205, 0.9979817271232605, 0.9999218583106995, 0], "min" : [-0.9999129176139832, -0.9995460510253906, -0.9990537762641907, 0], "name" : "TANGENT"}, {"bufferView" : 5, "byteOffset" : 40, "componentType" : 5126, "count" : 3819, "type" : "VEC2", "max" : [0.9856995940208435, 0.9910374879837036], "min" : [0.015933215618133545, 0.00253218412399292], "name" : "TEXCOORD_0"}, {"bufferView" : 0, "byteOffset" : 37068, "componentType" : 5123, "count" : 1008, "type" : "SCALAR", "max" : [835], "min" : [0]}, {"bufferView" : 6, "byteOffset" : 0, "componentType" : 5126, "count" : 836, "type" : "VEC3", "max" : [0.2239309698343277, 0.320919930934906, 0.2137305587530136], "min" : [-0.22393302619457245, 0.0005597294075414538, -0.11533544957637787], "name" : "POSITION"}, {"bufferView" : 6, "byteOffset" : 12, "componentType" : 5126, "count" : 836, "type" : "VEC3", "max" : [0.9988812208175659, 0.9976056814193726, 0.9972454905509949], "min" : [-0.9988811016082764, -1.0000001192092896, -0.999119222164154], "name" : "NORMAL"}, {"bufferView" : 6, "byteOffset" : 24, "componentType" : 5126, "count" : 836, "type" : "VEC4", "max" : [0.9961710572242737, 0.5899526476860046, 0.9940049052238464, 0], "min" : [-0.9961585998535156, -0.9500130414962769, -0.9991803765296936, 0], "name" : "TANGENT"}, {"bufferView" : 6, "byteOffset" : 40, "componentType" : 5126, "count" : 836, "type" : "VEC2", "max" : [0.9824327230453491, 0.9737163782119751], "min" : [0.03527505323290825, 0.02252185344696045], "name" : "TEXCOORD_0"}, {"bufferView" : 0, "byteOffset" : 39084, "componentType" : 5123, "count" : 14910, "type" : "SCALAR", "max" : [11955], "min" : [0]}, {"bufferView" : 7, "byteOffset" : 0, "componentType" : 5126, "count" : 11956, "type" : "VEC3", "max" : [0.5339937210083008, 1.6432600021362305, 0.17365846037864685], "min" : [-0.5340115427970886, 0.8747545480728149, -0.18698352575302124], "name" : "POSITION"}, {"bufferView" : 7, "byteOffset" : 12, "componentType" : 5126, "count" : 11956, "type" : "VEC3", "max" : [0.9992452263832092, 0.9954994916915894, 0.9999353885650635], "min" : [-1, -0.9918280839920044, -0.9997398257255554], "name" : "NORMAL"}, {"bufferView" : 7, "byteOffset" : 24, "componentType" : 5126, "count" : 11956, "type" : "VEC4", "max" : [0.9999682307243347, 0.9993153810501099, 1.0000029802322388, 0], "min" : [-0.9999913573265076, -0.9982925057411194, -0.9998972415924072, 0], "name" : "TANGENT"}, {"bufferView" : 7, "byteOffset" : 40, "componentType" : 5126, "count" : 11956, "type" : "VEC2", "max" : [0.9798097610473633, 0.9814407229423523], "min" : [0.014321818947792053, 0.013548851013183594], "name" : "TEXCOORD_0"}, {"bufferView" : 0, "byteOffset" : 68904, "componentType" : 5123, "count" : 8613, "type" : "SCALAR", "max" : [7057], "min" : [0]}, {"bufferView" : 8, "byteOffset" : 0, "componentType" : 5126, "count" : 7058, "type" : "VEC3", "max" : [0.09354204684495926, 1.846182107925415, 0.11849185079336166], "min" : [-0.1015869528055191, 1.6412813663482666, -0.0931081771850586], "name" : "POSITION"}, {"bufferView" : 8, "byteOffset" : 12, "componentType" : 5126, "count" : 7058, "type" : "VEC3", "max" : [0.999176561832428, 0.9989719390869141, 0.9999710917472839], "min" : [-0.9992299675941467, -0.9955378770828247, -0.985346257686615], "name" : "NORMAL"}, {"bufferView" : 8, "byteOffset" : 24, "componentType" : 5126, "count" : 7058, "type" : "VEC2", "max" : [0.9980469346046448, 0.9980469346046448], "min" : [0.0019530814606696367, 0.01727771759033203], "name" : "TEXCOORD_0"}, {"bufferView" : 0, "byteOffset" : 86132, "componentType" : 5123, "count" : 594, "type" : "SCALAR", "max" : [486], "min" : [0]}, {"bufferView" : 9, "byteOffset" : 0, "componentType" : 5126, "count" : 487, "type" : "VEC3", "max" : [0.08315939456224442, 1.74794340133667, 0.1316644847393036], "min" : [-0.08315939456224442, 1.6920605897903442, -0.03207981958985329], "name" : "POSITION"}, {"bufferView" : 9, "byteOffset" : 12, "componentType" : 5126, "count" : 487, "type" : "VEC3", "max" : [1.0000044107437134, 1.0000041723251343, 0.9999955892562866], "min" : [-1.0000044107437134, -1.0000044107437134, -0.912583589553833], "name" : "NORMAL"}, {"bufferView" : 9, "byteOffset" : 24, "componentType" : 5126, "count" : 487, "type" : "VEC2", "max" : [0.9706857800483704, 0.9592714905738831], "min" : [0.0228301789611578, 0.031208276748657227], "name" : "TEXCOORD_0"}], "asset" : {"generator" : "Aspose.3D 23.1", "version" : "2.0"}, "buffers" : [{"uri" : "data:application/octet-stream;base64,", "byteLength" : 1814592}], "bufferViews" : [{"buffer" : 0, "byteOffset" : 0, "byteLength" : 87320, "target" : 34963}, {"buffer" : 0, "byteOffset" : 87324, "byteLength" : 19776, "byteStride" : 32, "target" : 34962}, {"buffer" : 0, "byteOffset" : 107104, "byteLength" : 19776, "byteStride" : 32, "target" : 34962}, {"buffer" : 0, "byteOffset" : 126884, "byteLength" : 393024, "byteStride" : 32, "target" : 34962}, {"buffer" : 0, "byteOffset" : 519912, "byteLength" : 9600, "byteStride" : 32, "target" : 34962}, {"buffer" : 0, "byteOffset" : 529516, "byteLength" : 226368, "byteStride" : 48, "target" : 34962}, {"buffer" : 0, "byteOffset" : 755888, "byteLength" : 48384, "byteStride" : 48, "target" : 34962}, {"buffer" : 0, "byteOffset" : 804276, "byteLength" : 715680, "byteStride" : 48, "target" : 34962}, {"buffer" : 0, "byteOffset" : 1519960, "byteLength" : 275616, "byteStride" : 32, "target" : 34962}, {"buffer" : 0, "byteOffset" : 1795580, "byteLength" : 19008, "byteStride" : 32, "target" : 34962}], "images" : [{"uri" : "data:image/jpeg;base64,"}, {"uri" : "data:image/jpeg;base64,"}, {"uri" : "data:image/jpeg;base64,"}, {"uri" : "data:application/octet-stream;base64,"}, {"uri" : "data:application/octet-stream;base64,"}, {"uri" : "data:application/octet-stream;base64,"}, {"uri" : "data:image/jpeg;base64,"}, {"uri" : "data:image/jpeg;base64,"}, {"uri" : "data:application/octet-stream;base64,"}, {"uri" : "data:application/octet-stream;base64,"}, {"uri" : "data:application/octet-stream;base64,"}, {"uri" : "data:application/octet-stream;base64,"}, {"uri" : "data:application/octet-stream;base64,"}, {"uri" : "data:image/png;base64,"}, {"uri" : "data:image/png;base64,"}], "materials" : [{"name" : "Wolf3D_Eye", "pbrMetallicRoughness" : {"baseColorFactor" : [1, 1, 1, 1], "baseColorTexture" : {"index" : 0, "texCoord" : 0}, "metallicFactor" : 0, "roughnessFactor" : 1}, "emissiveFactor" : [0, 0, 0], "alphaMode" : "OPAQUE", "doubleSided" : true}, {"name" : "Wolf3D_Eye", "pbrMetallicRoughness" : {"baseColorFactor" : [1, 1, 1, 1], "baseColorTexture" : {"index" : 0, "texCoord" : 0}, "metallicFactor" : 0, "roughnessFactor" : 1}, "emissiveFactor" : [0, 0, 0], "alphaMode" : "OPAQUE", "doubleSided" : true}, {"name" : "Wolf3D_Skin", "pbrMetallicRoughness" : {"baseColorFactor" : [1, 1, 1, 1], "baseColorTexture" : {"index" : 1, "texCoord" : 0}, "metallicFactor" : 0, "roughnessFactor" : 0.699999988079071}, "emissiveFactor" : [0, 0, 0], "alphaMode" : "OPAQUE", "doubleSided" : true}, {"name" : "Wolf3D_Teeth", "pbrMetallicRoughness" : {"baseColorFactor" : [1, 1, 1, 1], "baseColorTexture" : {"index" : 2, "texCoord" : 0}, "metallicFactor" : 0, "roughnessFactor" : 1}, "emissiveFactor" : [0, 0, 0], "alphaMode" : "OPAQUE", "doubleSided" : true}, {"name" : "Wolf3D_Outfit_Bottom", "pbrMetallicRoughness" : {"baseColorFactor" : [1, 1, 1, 1], "baseColorTexture" : {"index" : 4, "texCoord" : 0}, "metallicFactor" : 1, "roughnessFactor" : 1, "metallicRoughnessTexture" : {"index" : 5, "texCoord" : 0}}, "normalTexture" : {"index" : 3, "texCoord" : 0, "scale" : 1}, "emissiveFactor" : [0, 0, 0], "alphaMode" : "OPAQUE", "doubleSided" : true}, {"name" : "Wolf3D_Outfit_Footwear", "pbrMetallicRoughness" : {"baseColorFactor" : [1, 1, 1, 1], "baseColorTexture" : {"index" : 7, "texCoord" : 0}, "metallicFactor" : 1, "roughnessFactor" : 1, "metallicRoughnessTexture" : {"index" : 8, "texCoord" : 0}}, "normalTexture" : {"index" : 6, "texCoord" : 0, "scale" : 1}, "emissiveFactor" : [0, 0, 0], "alphaMode" : "OPAQUE", "doubleSided" : true}, {"name" : "Wolf3D_Outfit_Top", "pbrMetallicRoughness" : {"baseColorFactor" : [1, 1, 1, 1], "baseColorTexture" : {"index" : 10, "texCoord" : 0}, "metallicFactor" : 1, "roughnessFactor" : 1, "metallicRoughnessTexture" : {"index" : 11, "texCoord" : 0}}, "normalTexture" : {"index" : 9, "texCoord" : 0, "scale" : 1}, "emissiveFactor" : [0, 0, 0], "alphaMode" : "OPAQUE", "doubleSided" : true}, {"name" : "Wolf3D_Hair", "pbrMetallicRoughness" : {"baseColorFactor" : [1, 1, 1, 1], "baseColorTexture" : {"index" : 13, "texCoord" : 0}, "metallicFactor" : 0, "roughnessFactor" : 0.800000011920929}, "normalTexture" : {"index" : 12, "texCoord" : 0, "scale" : 1}, "emissiveFactor" : [0, 0, 0], "alphaMode" : "OPAQUE", "doubleSided" : true}, {"name" : "Wolf3D_Glasses", "pbrMetallicRoughness" : {"baseColorFactor" : [1, 1, 1, 1], "baseColorTexture" : {"index" : 14, "texCoord" : 0}, "metallicFactor" : 1, "roughnessFactor" : 0}, "emissiveTexture" : {"index" : 14, "texCoord" : 0}, "emissiveFactor" : [1, 1, 1], "alphaMode" : "OPAQUE", "doubleSided" : true}], "meshes" : [{"primitives" : [{"attributes" : {"POSITION" : 1, "NORMAL" : 2, "TEXCOORD_0" : 3}, "indices" : 0, "material" : 0, "mode" : 4}]}, {"primitives" : [{"attributes" : {"POSITION" : 5, "NORMAL" : 6, "TEXCOORD_0" : 7}, "indices" : 4, "material" : 1, "mode" : 4}]}, {"primitives" : [{"attributes" : {"POSITION" : 9, "NORMAL" : 10, "TEXCOORD_0" : 11}, "indices" : 8, "material" : 2, "mode" : 4}]}, {"primitives" : [{"attributes" : {"POSITION" : 13, "NORMAL" : 14, "TEXCOORD_0" : 15}, "indices" : 12, "material" : 3, "mode" : 4}]}, {"primitives" : [{"attributes" : {"POSITION" : 17, "NORMAL" : 18, "TANGENT" : 19, "TEXCOORD_0" : 20}, "indices" : 16, "material" : 4, "mode" : 4}]}, {"primitives" : [{"attributes" : {"POSITION" : 22, "NORMAL" : 23, "TANGENT" : 24, "TEXCOORD_0" : 25}, "indices" : 21, "material" : 5, "mode" : 4}]}, {"primitives" : [{"attributes" : {"POSITION" : 27, "NORMAL" : 28, "TANGENT" : 29, "TEXCOORD_0" : 30}, "indices" : 26, "material" : 6, "mode" : 4}]}, {"primitives" : [{"attributes" : {"POSITION" : 32, "NORMAL" : 33, "TEXCOORD_0" : 34}, "indices" : 31, "material" : 7, "mode" : 4}]}, {"primitives" : [{"attributes" : {"POSITION" : 36, "NORMAL" : 37, "TEXCOORD_0" : 38}, "indices" : 35, "material" : 8, "mode" : 4}]}], "nodes" : [{"mesh" : 0, "name" : "EyeLeft"}, {"mesh" : 1, "name" : "EyeRight"}, {"mesh" : 2, "name" : "Wolf3D_Head"}, {"mesh" : 3, "name" : "Wolf3D_Teeth"}, {"mesh" : 4, "name" : "Wolf3D_Outfit_Bottom"}, {"mesh" : 5, "name" : "Wolf3D_Outfit_Footwear"}, {"mesh" : 6, "name" : "Wolf3D_Outfit_Top"}, {"mesh" : 7, "name" : "Wolf3D_Hair"}, {"mesh" : 8, "name" : "Wolf3D_Glasses"}, {"children" : [0, 1, 2, 3, 4, 5, 6, 7, 8], "name" : "Armature"}], "samplers" : [{"magFilter" : 9728, "minFilter" : 9728, "wrapS" : 10497, "wrapT" : 10497}, {"magFilter" : 9728, "minFilter" : 9728, "wrapS" : 10497, "wrapT" : 10497}, {"magFilter" : 9729, "minFilter" : 9987, "wrapS" : 10497, "wrapT" : 10497}, {"magFilter" : 9729, "minFilter" : 9987, "wrapS" : 10497, "wrapT" : 10497}, {"magFilter" : 9729, "minFilter" : 9987, "wrapS" : 10497, "wrapT" : 10497}, {"magFilter" : 9729, "minFilter" : 9987, "wrapS" : 10497, "wrapT" : 10497}, {"magFilter" : 9729, "minFilter" : 9987, "wrapS" : 10497, "wrapT" : 10497}, {"magFilter" : 9729, "minFilter" : 9987, "wrapS" : 10497, "wrapT" : 10497}, {"magFilter" : 9729, "minFilter" : 9987, "wrapS" : 10497, "wrapT" : 10497}, {"magFilter" : 9729, "minFilter" : 9987, "wrapS" : 10497, "wrapT" : 10497}, {"magFilter" : 9729, "minFilter" : 9987, "wrapS" : 10497, "wrapT" : 10497}, {"magFilter" : 9729, "minFilter" : 9987, "wrapS" : 10497, "wrapT" : 10497}, {"magFilter" : 9729, "minFilter" : 9987, "wrapS" : 10497, "wrapT" : 10497}, {"magFilter" : 9728, "minFilter" : 9728, "wrapS" : 10497, "wrapT" : 10497}, {"magFilter" : 9728, "minFilter" : 9728, "wrapS" : 10497, "wrapT" : 10497}], "scene" : 0, "scenes" : [{"nodes" : [9]}], "textures" : [{"sampler" : 0, "source" : 0, "name" : ""}, {"sampler" : 1, "source" : 1, "name" : ""}, {"sampler" : 2, "source" : 2, "name" : ""}, {"sampler" : 3, "source" : 3, "name" : ""}, {"sampler" : 4, "source" : 4, "name" : ""}, {"sampler" : 5, "source" : 5, "name" : ""}, {"sampler" : 6, "source" : 6, "name" : ""}, {"sampler" : 7, "source" : 7, "name" : ""}, {"sampler" : 8, "source" : 8, "name" : ""}, {"sampler" : 9, "source" : 9, "name" : ""}, {"sampler" : 10, "source" : 10, "name" : ""}, {"sampler" : 11, "source" : 11, "name" : ""}, {"sampler" : 12, "source" : 12, "name" : ""}, {"sampler" : 13, "source" : 13, "name" : ""}, {"sampler" : 14, "source" : 14, "name" : ""}]}